<?xml version="1.0" encoding="UTF-8" standalone="no" ?>
<!DOCTYPE svg PUBLIC "-//W3C//DTD SVG 1.1//EN" "http://www.w3.org/Graphics/SVG/1.1/DTD/svg11.dtd">
<svg xmlns="http://www.w3.org/2000/svg" xmlns:xlink="http://www.w3.org/1999/xlink" version="1.1" viewBox="0 210 500 90" xml:space="preserve">
<desc>Created with Fabric.js 3.6.3</desc>
<defs>
</defs>
<g transform="matrix(1 0 0 1 250 250)"  >
<rect style="stroke: none; stroke-width: 1; stroke-dasharray: none; stroke-linecap: butt; stroke-dashoffset: 0; stroke-linejoin: miter; stroke-miterlimit: 4; fill: transparent; fill-rule: nonzero; opacity: 1;"  x="-250" y="-250" rx="0" ry="0" width="500" height="500" />
</g>
<g transform="matrix(0.6970159919477387 0 0 0.6970159919477387 386.53698279651593 249.38129845348413)"  >
<g style=""   >
		<g transform="matrix(1.3333333333333335 0 0 1.3333333333333335 0.0033333333333303017 0.5440000000000111)"  >
<linearGradient id="SVGID_50910_50916" gradientUnits="userSpaceOnUse" gradientTransform="matrix(1 0 0 1 17.035899999999998 17.437199999999997)"  x1="0" y1="0" x2="133.33333333333334" y2="133.33333333333334">
<stop offset="0%" style="stop-color:#E9AB1A;"/>
<stop offset="32%" style="stop-color:#F5C31B;"/>
<stop offset="68%" style="stop-color:#FFF990;"/>
<stop offset="100%" style="stop-color:#FFF17E;"/>
</linearGradient>
<path style="stroke: none; stroke-width: 1; stroke-dasharray: none; stroke-linecap: butt; stroke-dashoffset: 0; stroke-linejoin: miter; stroke-miterlimit: 4; fill: url(#SVGID_50910_50916); fill-rule: evenodd; opacity: 1;"  transform=" translate(-50.0025, -50.40800000000001)" d="m 81.723 41.402 c 0.8125 2.8633 1.2461 5.8828 1.2461 9.0078 c 0 18.195 -14.773 32.969 -32.969 32.969 c -2.457 0 -4.8555 -0.26953 -7.1562 -0.78125 v -3.2109 c 2.2891 0.56641 4.6875 0.86719 7.1562 0.86719 c 4.3242 0 8.4375 -0.92188 12.148 -2.582 c 1.1133 -7.9297 -2.4336 -18.469 5.4766 -23.746 c 1.1055 -0.73828 2.3555 -1.2148 3.6406 -1.5391 c 1.7734 -0.44531 3.625 -0.65234 5.4531 -0.63281 c 1.0078 0.011719 2.043 0.082032 3.0859 0.22266 c 0.027343 -0.51562 0.039062 -1.0391 0.039062 -1.5625 c 0 -3.1367 -0.48438 -6.1641 -1.3867 -9.0078 h 3.2617 z m -63.441 18.012 c -0.8125 -2.8633 -1.2461 -5.8828 -1.2461 -9.0078 c 0 -18.195 14.773 -32.969 32.969 -32.969 c 2.457 0 4.8555 0.26953 7.1562 0.78125 v 3.2109 c -1.0312 -0.25391 -2.0859 -0.45703 -3.1523 -0.59766 c -3.2383 2.6484 -5.7031 5.9727 -6.418 10.148 c -0.97656 5.6992 3.0625 10.461 4.25 15.73 c 0.73828 3.2695 -0.22656 6.8477 -3.2656 8.6055 c -0.96094 0.55859 -2.1172 0.94141 -3.207 1.1641 c -10.336 2.0859 -14.316 -8.3555 -21.555 -13.051 c -0.79297 -0.51172 -1.6133 -0.97656 -2.4531 -1.3945 c -0.77734 2.6562 -1.1914 5.4648 -1.1914 8.3711 c 0 3.1367 0.48438 6.1641 1.3867 9.0078 z" stroke-linecap="round" />
</g>
		<g transform="matrix(1.3333333333333335 0 0 1.3333333333333335 -24.149093333333333 -30.26585417174276)"  >
<linearGradient id="SVGID_50911_50917" gradientUnits="userSpaceOnUse" gradientTransform="matrix(1 0 0 1 5.558 2.6250187423858584)"  x1="0" y1="0" x2="133.33333333333334" y2="133.33333333333334">
<stop offset="0%" style="stop-color:#E9AB1A;"/>
<stop offset="32%" style="stop-color:#F5C31B;"/>
<stop offset="68%" style="stop-color:#FFF990;"/>
<stop offset="100%" style="stop-color:#FFF17E;"/>
</linearGradient>
<path style="stroke: none; stroke-width: 1; stroke-dasharray: none; stroke-linecap: butt; stroke-dashoffset: 0; stroke-linejoin: miter; stroke-miterlimit: 4; fill: url(#SVGID_50911_50917); fill-rule: evenodd; opacity: 1;"  transform=" translate(-31.888180000000002, -27.30060937119293)" d="m 49.566 5.9727 c -24.332 0.23438 -44.008 20.055 -44.008 44.441 c 0 0.86328 0.69922 1.5625 1.5625 1.5625 c 0.86328 0 1.5625 -0.69922 1.5625 -1.5625 c 0 -22.66 18.281 -41.082 40.883 -41.316 v 2.293 c 0 0.375 0.19922 0.72266 0.52734 0.91016 c 0.32422 0.1875 0.72656 0.18359 1.0508 -0.007812 c 1.8125 -1.0664 4.7656 -2.8047 6.5586 -3.8594 c 0.32031 -0.1875 0.51562 -0.53125 0.51562 -0.90234 s -0.19531 -0.71484 -0.51562 -0.90234 c -1.793 -1.0547 -4.7461 -2.793 -6.5586 -3.8594 c -0.32422 -0.19141 -0.72656 -0.19141 -1.0508 -0.007812 c -0.32422 0.1875 -0.52734 0.53516 -0.52734 0.91016 z" stroke-linecap="round" />
</g>
		<g transform="matrix(1.3333333333333335 0 0 1.3333333333333335 29.31049333333333 30.81625083050175)"  >
<linearGradient id="SVGID_50912_50918" gradientUnits="userSpaceOnUse" gradientTransform="matrix(1 0 0 1 49.519739999999985 48.84750000000001)"  x1="0" y1="0" x2="133.33333333333334" y2="133.33333333333334">
<stop offset="0%" style="stop-color:#E9AB1A;"/>
<stop offset="32%" style="stop-color:#F5C31B;"/>
<stop offset="68%" style="stop-color:#FFF990;"/>
<stop offset="100%" style="stop-color:#FFF17E;"/>
</linearGradient>
<path style="stroke: none; stroke-width: 1; stroke-dasharray: none; stroke-linecap: butt; stroke-dashoffset: 0; stroke-linejoin: miter; stroke-miterlimit: 4; fill: url(#SVGID_50912_50918); fill-rule: evenodd; opacity: 1;"  transform=" translate(-71.98286999999999, -73.11218812287632)" d="m 58.176 90.918 c 18.895 -3.7969 33.145 -20.504 33.145 -40.508 c 0 -0.86328 0.69922 -1.5625 1.5625 -1.5625 c 0.86328 0 1.5625 0.69922 1.5625 1.5625 c 0 21.734 -15.637 39.844 -36.27 43.688 v 2.2305 c 0 0.375 -0.19922 0.72266 -0.52734 0.91016 c -0.32422 0.1875 -0.72656 0.18359 -1.0508 -0.007812 c -1.8125 -1.0664 -4.7656 -2.8047 -6.5625 -3.8594 c -0.32031 -0.1875 -0.51562 -0.53125 -0.51562 -0.90234 s 0.19531 -0.71484 0.51562 -0.90234 c 1.793 -1.0547 4.75 -2.793 6.5625 -3.8594 c 0.32422 -0.19141 0.72266 -0.19141 1.0508 -0.007812 c 0.32422 0.1875 0.52734 0.53516 0.52734 0.91016 z" stroke-linecap="round" />
</g>
		<g transform="matrix(1.3333333333333335 0 0 1.3333333333333335 38.79447333333335 -26.198065363360218)"  >
<linearGradient id="SVGID_50913_50919" gradientUnits="userSpaceOnUse" gradientTransform="matrix(1 0 0 1 60.27750999999999 14.043400000000002)"  x1="0" y1="0" x2="133.33333333333334" y2="133.33333333333334">
<stop offset="0%" style="stop-color:#E9AB1A;"/>
<stop offset="32%" style="stop-color:#F5C31B;"/>
<stop offset="68%" style="stop-color:#FFF990;"/>
<stop offset="100%" style="stop-color:#FFF17E;"/>
</linearGradient>
<path style="stroke: none; stroke-width: 1; stroke-dasharray: none; stroke-linecap: butt; stroke-dashoffset: 0; stroke-linejoin: miter; stroke-miterlimit: 4; fill: url(#SVGID_50913_50919); fill-rule: evenodd; opacity: 1;"  transform=" translate(-79.095855, -30.35145097747984)" d="m 60.281 17.184 c 0 -1.7344 1.4062 -3.1406 3.1406 -3.1406 h 31.352 c 1.7344 0 3.1406 1.4062 3.1406 3.1406 v 17.957 c 0 1.7344 -1.4062 3.1406 -3.1406 3.1406 h -22.332 c -0.76172 0 -1.5 0.27734 -2.0742 0.78125 c -1.8164 1.5938 -5.9766 5.2539 -8.3516 7.3359 c -0.30859 0.27344 -0.74609 0.33594 -1.1211 0.16797 c -0.375 -0.16797 -0.61719 -0.54297 -0.61719 -0.95312 v -28.426 z m 9.2969 6.9141 c 1.3477 0 2.4414 1.0938 2.4414 2.4414 c 0 1.3477 -1.0938 2.4414 -2.4414 2.4414 s -2.4414 -1.0938 -2.4414 -2.4414 c 0 -1.3477 1.0938 -2.4414 2.4414 -2.4414 z m 19.039 0 c 1.3477 0 2.4414 1.0938 2.4414 2.4414 c 0 1.3477 -1.0938 2.4414 -2.4414 2.4414 c -1.3477 0 -2.4414 -1.0938 -2.4414 -2.4414 c 0 -1.3477 1.0938 -2.4414 2.4414 -2.4414 z m -9.5195 0 c 1.3477 0 2.4414 1.0938 2.4414 2.4414 c 0 1.3477 -1.0938 2.4414 -2.4414 2.4414 s -2.4414 -1.0938 -2.4414 -2.4414 c 0 -1.3477 1.0938 -2.4414 2.4414 -2.4414 z" stroke-linecap="round" />
</g>
		<g transform="matrix(1.3333333333333335 0 0 1.3333333333333335 -34.07382355735179 32.88336666666666)"  >
<linearGradient id="SVGID_50914_50920" gradientUnits="userSpaceOnUse" gradientTransform="matrix(1 0 0 1 2.0826100000000025 62.54338999999999)"  x1="0" y1="0" x2="133.33333333333334" y2="133.33333333333334">
<stop offset="0%" style="stop-color:#E9AB1A;"/>
<stop offset="32%" style="stop-color:#F5C31B;"/>
<stop offset="68%" style="stop-color:#FFF990;"/>
<stop offset="100%" style="stop-color:#FFF17E;"/>
</linearGradient>
<path style="stroke: none; stroke-width: 1; stroke-dasharray: none; stroke-linecap: butt; stroke-dashoffset: 0; stroke-linejoin: miter; stroke-miterlimit: 4; fill: url(#SVGID_50914_50920); fill-rule: evenodd; opacity: 1;"  transform=" translate(-24.444632331986167, -74.66252499999999)" d="m 46.52 64.309 c 0.28906 -0.30469 0.36719 -0.75 0.19922 -1.1328 c -0.16406 -0.38281 -0.54297 -0.63281 -0.96094 -0.63281 h -40.535 c -0.83203 0 -1.6328 0.33203 -2.2227 0.91797 c -0.58984 0.58984 -0.91797 1.3867 -0.91797 2.2227 v 17.957 c 0 1.7344 1.4062 3.1406 3.1406 3.1406 h 31.352 c 0.83203 0 1.6328 -0.33203 2.2227 -0.91797 c 0.58984 -0.58984 0.92188 -1.3867 0.92188 -2.2227 v -10.898 c 0 -0.80469 0.30859 -1.5781 0.85938 -2.1602 c 1.3906 -1.4648 4.1523 -4.3828 5.9414 -6.2734 z m -25.617 8.2891 c -1.3477 0 -2.4414 1.0938 -2.4414 2.4414 c 0 1.3477 1.0938 2.4414 2.4414 2.4414 s 2.4414 -1.0938 2.4414 -2.4414 c 0 -1.3477 -1.0938 -2.4414 -2.4414 -2.4414 z m 9.5195 0 c -1.3477 0 -2.4414 1.0938 -2.4414 2.4414 c 0 1.3477 1.0938 2.4414 2.4414 2.4414 s 2.4414 -1.0938 2.4414 -2.4414 c 0 -1.3477 -1.0938 -2.4414 -2.4414 -2.4414 z m -19.039 0 c -1.3477 0 -2.4414 1.0938 -2.4414 2.4414 c 0 1.3477 1.0938 2.4414 2.4414 2.4414 c 1.3477 0 2.4414 -1.0938 2.4414 -2.4414 c 0 -1.3477 -1.0938 -2.4414 -2.4414 -2.4414 z" stroke-linecap="round" />
</g>
</g>
</g>
<g transform="matrix(1 0 0 1 250.25 256.25)" style=""  ><path fill="url(#CUSTOM_SVGID_125)" opacity="1" d="M-197.45 25.24Q-198.61 25.09-202.36 24.70Q-206.12 24.31-208.59 24.31L-208.59 24.31Q-210.99 24.31-213.82 24.70Q-216.64 25.09-217.49 25.24L-217.49 25.24L-217.03 21.68Q-213.47 20.99-212.23 19.63Q-210.99 18.28-210.99 15.03L-210.99 15.03L-210.92-17.48Q-210.92-19.96-211.50-20.81Q-212.08-21.66-213.78-21.66L-213.78-21.66Q-214.55-21.66-215.33-21.58Q-216.10-21.51-216.41-21.51L-216.41-21.51L-216.57-21.82L-216.02-25.22Q-215.17-25.14-212.77-25.07Q-210.37-24.99-207.90-24.99L-207.90-24.99Q-204.57-24.99-201.01-25.11Q-197.45-25.22-196.13-25.30L-196.13-25.30Q-188.70-25.30-182.90-22.40Q-177.09-19.49-173.88-14.23Q-170.67-8.97-170.67-2.16L-170.67-2.16Q-170.67 5.43-174.23 11.70Q-177.79 17.97-183.90 21.61Q-190.02 25.24-197.45 25.24L-197.45 25.24ZM-201.47-21.51Q-203.10-21.51-203.64-21.16Q-204.18-20.81-204.26-19.80L-204.26-19.80Q-205.42 10.00-205.42 14.18L-205.42 14.18Q-205.42 17.12-204.61 18.59Q-203.79 20.06-201.74 20.68Q-199.69 21.30-195.67 21.30L-195.67 21.30Q-187.31 21.30-182.51 15.53Q-177.71 9.76-177.71-0.30L-177.71-0.30Q-177.71-10.52-183.86-16.01Q-190.02-21.51-201.47-21.51L-201.47-21.51Z"/>
    <linearGradient id="CUSTOM_SVGID_125" gradientUnits="userSpaceOnUse" gradientTransform="matrix(1 0 0 1 -229 -43.730999999999995)"  x1="0" y1="0" x2="458" y2="87.46199999999999">
      <stop  offset="0" style="stop-color:#FFDA4E;stop-opacity:undefined"/><stop  offset="0.32" style="stop-color:#FBDE8A;stop-opacity:undefined"/><stop  offset="0.68" style="stop-color:#D8A517;stop-opacity:undefined"/><stop  offset="1" style="stop-color:#F6BE21;stop-opacity:undefined"/>
    </linearGradient>
  <path fill="url(#CUSTOM_SVGID_126)" opacity="1" d="M-161.38 25.24L-160.91 21.68Q-157.28 20.99-156.00 19.63Q-154.72 18.28-154.72 15.03L-154.72 15.03L-154.65-17.48Q-154.65-19.96-155.23-20.81Q-155.81-21.66-157.51-21.66L-157.51-21.66L-160.76-21.51L-160.91-21.82L-160.37-25.22Q-159.13-25.22-158.44-25.14L-158.44-25.14L-151.16-24.99Q-147.68-24.99-142.26-25.69L-142.26-25.69L-142.57-22.20Q-145.74-21.82-146.87-20.93Q-147.99-20.04-148.14-17.79L-148.14-17.79Q-148.61-8.74-148.92 1.13Q-149.23 11.00-149.23 15.65L-149.23 15.65Q-149.23 18.82-148.53 19.86Q-147.83 20.91-145.82 20.91L-145.82 20.91Q-144.51 20.91-141.72 20.68L-141.72 20.68L-141.56 20.99L-142.26 24.55Q-143.34 24.55-143.96 24.47L-143.96 24.47Q-149.38 24.31-152.40 24.31L-152.40 24.31Q-156.19 24.31-161.38 25.24L-161.38 25.24Z"/>
    <linearGradient id="CUSTOM_SVGID_126" gradientUnits="userSpaceOnUse" gradientTransform="matrix(1 0 0 1 -229 -43.730999999999995)"  x1="0" y1="0" x2="458" y2="87.46199999999999">
      <stop  offset="0" style="stop-color:#FFDA4E;stop-opacity:undefined"/><stop  offset="0.32" style="stop-color:#FBDE8A;stop-opacity:undefined"/><stop  offset="0.68" style="stop-color:#D8A517;stop-opacity:undefined"/><stop  offset="1" style="stop-color:#F6BE21;stop-opacity:undefined"/>
    </linearGradient>
  <path fill="url(#CUSTOM_SVGID_127)" opacity="1" d="M-110.99 25.09L-111.22 24.55L-110.91 21.53Q-106.97 21.22-105.50 20.60Q-104.03 19.98-104.03 18.59L-104.03 18.59Q-104.03 17.04-104.72 14.87L-104.72 14.87L-107.28 6.44Q-109.13 6.36-115.33 6.36L-115.33 6.36Q-119.04 6.36-123.76 6.98L-123.76 6.98L-126.63 15.03Q-127.32 17.12-127.32 18.05L-127.32 18.05Q-127.32 19.75-126.24 20.48Q-125.16 21.22-122.68 21.22L-122.68 21.22L-118.27 21.22L-118.11 21.53L-118.58 24.86Q-119.51 24.78-122.83 24.55Q-126.16 24.31-129.34 24.31L-129.34 24.31Q-132.20 24.31-134.64 24.39Q-137.08 24.47-137.85 24.55L-137.85 24.55L-137.23 20.91Q-135.06 20.68-133.75 19.40Q-132.43 18.12-131.19 14.95L-131.19 14.95L-116.10-24.60L-111.22-25.92L-110.60-25.92Q-110.14-24.06-108.24-17.33Q-106.35-10.59-103.60-1.38Q-100.85 7.83-98.30 15.57L-98.30 15.57Q-97.37 18.43-95.82 19.59Q-94.27 20.75-90.87 21.06L-90.87 21.06L-90.71 21.37L-91.25 24.55Q-92.18 24.55-94.62 24.43Q-97.06 24.31-99.46 24.31L-99.46 24.31Q-103.17 24.31-106.62 24.62Q-110.06 24.93-110.99 25.09L-110.99 25.09ZM-122.37 3.18L-115.56 3.18Q-112.77 3.18-108.36 2.80L-108.36 2.80L-114.47-17.48L-115.02-17.48L-122.37 3.18Z"/>
    <linearGradient id="CUSTOM_SVGID_127" gradientUnits="userSpaceOnUse" gradientTransform="matrix(1 0 0 1 -229 -43.730999999999995)"  x1="0" y1="0" x2="458" y2="87.46199999999999">
      <stop  offset="0" style="stop-color:#FFDA4E;stop-opacity:undefined"/><stop  offset="0.32" style="stop-color:#FBDE8A;stop-opacity:undefined"/><stop  offset="0.68" style="stop-color:#D8A517;stop-opacity:undefined"/><stop  offset="1" style="stop-color:#F6BE21;stop-opacity:undefined"/>
    </linearGradient>
  <path fill="url(#CUSTOM_SVGID_128)" opacity="1" d="M-84.37 25.09L-83.90 21.53Q-80.88 21.06-79.76 19.71Q-78.64 18.35-78.64 15.03L-78.64 15.03L-78.56-17.48Q-78.56-19.96-79.14-20.81Q-79.72-21.66-81.42-21.66L-81.42-21.66Q-82.20-21.66-82.97-21.58Q-83.75-21.51-84.06-21.51L-84.06-21.51L-84.21-21.82L-83.67-25.22Q-82.74-25.14-80.19-25.07Q-77.63-24.99-75.00-24.99L-75.00-24.99Q-72.91-24.99-70.24-25.26Q-67.57-25.53-66.72-25.69L-66.72-25.69L-67.03-22.20Q-69.58-21.89-70.55-21.20Q-71.52-20.50-71.71-19.57Q-71.90-18.64-72.14-15.00L-72.14-15.00Q-72.60-8.43-72.83 0.01Q-73.07 8.45-73.07 14.87L-73.07 14.87Q-73.07 17.66-72.60 18.86Q-72.14 20.06-70.86 20.44Q-69.58 20.83-66.49 20.83L-66.49 20.83Q-61.77 20.83-59.56 20.06Q-57.35 19.28-56.23 17.04Q-55.11 14.79-54.18 9.84L-54.18 9.84L-50.77 9.45L-50.54 9.84Q-50.77 11.08-51.51 15.41Q-52.25 19.75-52.79 24.55L-52.79 24.55L-53.17 25.01Q-55.42 24.86-62.42 24.59Q-69.43 24.31-73.99 24.31L-73.99 24.31Q-77.63 24.31-80.61 24.62Q-83.59 24.93-84.37 25.09L-84.37 25.09Z"/>
    <linearGradient id="CUSTOM_SVGID_128" gradientUnits="userSpaceOnUse" gradientTransform="matrix(1 0 0 1 -229 -43.730999999999995)"  x1="0" y1="0" x2="458" y2="87.46199999999999">
      <stop  offset="0" style="stop-color:#FFDA4E;stop-opacity:undefined"/><stop  offset="0.32" style="stop-color:#FBDE8A;stop-opacity:undefined"/><stop  offset="0.68" style="stop-color:#D8A517;stop-opacity:undefined"/><stop  offset="1" style="stop-color:#F6BE21;stop-opacity:undefined"/>
    </linearGradient>
  <path fill="url(#CUSTOM_SVGID_129)" opacity="1" d="M-9.13 11.00L-8.90 11.39Q-10.22 17.66-10.99 24.39L-10.99 24.39L-11.38 24.86Q-27.63 24.31-34.83 24.31L-34.83 24.31Q-40.56 24.31-45.59 25.09L-45.59 25.09L-45.12 21.53Q-41.64 21.06-40.36 19.71Q-39.09 18.35-39.09 15.03L-39.09 15.03L-39.01-17.48Q-39.01-19.96-39.59-20.81Q-40.17-21.66-41.87-21.66L-41.87-21.66L-44.50-21.51L-44.66-21.82L-44.12-25.22Q-36.22-24.99-33.36-24.99L-33.36-24.99Q-24.15-24.99-19.04-25.18Q-13.93-25.38-10.14-25.92L-10.14-25.92L-9.91-25.45Q-11.30-19.34-11.69-12.61L-11.69-12.61L-15.40-12.30L-15.25-15.62Q-15.25-18.33-15.94-19.38Q-16.64-20.42-18.96-20.77Q-21.28-21.12-27.09-21.12L-27.09-21.12Q-29.80-21.12-30.81-20.96Q-31.81-20.81-32.12-20.23Q-32.43-19.65-32.51-18.10L-32.51-18.10L-33.13-3.09L-25.15-3.01Q-22.14-3.01-15.71-3.86L-15.71-3.86L-15.40-3.47L-16.49 1.09Q-25.08 0.86-27.32 0.86L-27.32 0.86Q-29.88 0.86-33.28 1.40L-33.28 1.40L-33.59 16.19Q-33.59 18.43-33.20 19.32Q-32.82 20.21-31.62 20.52Q-30.42 20.83-27.48 20.83L-27.48 20.83Q-20.98 20.83-18.23 20.21Q-15.48 19.59-14.32 17.74Q-13.16 15.88-12.54 11.39L-12.54 11.39L-9.13 11.00Z"/>
    <linearGradient id="CUSTOM_SVGID_129" gradientUnits="userSpaceOnUse" gradientTransform="matrix(1 0 0 1 -229 -43.730999999999995)"  x1="0" y1="0" x2="458" y2="87.46199999999999">
      <stop  offset="0" style="stop-color:#FFDA4E;stop-opacity:undefined"/><stop  offset="0.32" style="stop-color:#FBDE8A;stop-opacity:undefined"/><stop  offset="0.68" style="stop-color:#D8A517;stop-opacity:undefined"/><stop  offset="1" style="stop-color:#F6BE21;stop-opacity:undefined"/>
    </linearGradient>
  <path fill="url(#CUSTOM_SVGID_130)" opacity="1" d="M8.59-17.48Q8.59-19.96 8.01-20.81Q7.43-21.66 5.73-21.66L5.73-21.66Q4.95-21.66 4.18-21.58Q3.41-21.51 3.10-21.51L3.10-21.51L2.94-21.82L3.48-25.22Q4.41-25.14 6.97-25.07Q9.52-24.99 12.07-24.99L12.07-24.99Q14.16-24.99 16.83-25.26Q19.50-25.53 20.36-25.69L20.36-25.69L20.05-22.20Q17.18-21.74 16.10-20.77Q15.02-19.80 14.94-17.56L14.94-17.56L14.01 15.65Q13.93 18.74 14.63 19.83Q15.33 20.91 17.42 20.91L17.42 20.91Q18.58 20.91 19.58 20.83Q20.59 20.75 20.90 20.68L20.90 20.68L21.05 20.99L20.36 24.55Q19.35 24.47 16.56 24.39Q13.78 24.31 10.84 24.31L10.84 24.31L1.94 24.39L2.71 20.91Q5.19 20.68 6.39 20.13Q7.59 19.59 8.05 18.43Q8.51 17.27 8.51 15.03L8.51 15.03L8.59-17.48ZM16.33-1.15L30.19-15.55Q32.59-17.95 32.59-19.57L32.59-19.57Q32.59-21.58 27.71-21.89L27.71-21.89L27.55-22.20L28.10-25.53Q29.03-25.45 31.93-25.22Q34.83-24.99 36.61-24.99L36.61-24.99Q38.47-24.99 40.75-25.11Q43.03-25.22 43.73-25.30L43.73-25.30L44.04-24.76L43.50-21.58Q41.49-21.20 39.78-19.96Q38.08-18.72 34.60-15.08L34.60-15.08L22.14-2.00L35.14 14.95Q37.93 18.59 40.13 20.06Q42.34 21.53 45.05 21.53L45.05 21.53L45.36 21.84L44.89 24.47Q44.04 24.62 41.53 25.01Q39.01 25.40 38.47 25.40L38.47 25.40Q36.61 25.40 34.37 23.66Q32.12 21.92 29.80 18.74L29.80 18.74L16.25-0.07L16.33-1.15Z"/>
    <linearGradient id="CUSTOM_SVGID_130" gradientUnits="userSpaceOnUse" gradientTransform="matrix(1 0 0 1 -229 -43.730999999999995)"  x1="0" y1="0" x2="458" y2="87.46199999999999">
      <stop  offset="0" style="stop-color:#FFDA4E;stop-opacity:undefined"/><stop  offset="0.32" style="stop-color:#FBDE8A;stop-opacity:undefined"/><stop  offset="0.68" style="stop-color:#D8A517;stop-opacity:undefined"/><stop  offset="1" style="stop-color:#F6BE21;stop-opacity:undefined"/>
    </linearGradient>
  <path fill="url(#CUSTOM_SVGID_131)" opacity="1" d="M57.66 24.62L58.28 21.30Q62.15 20.99 63.62 20.33Q65.09 19.67 65.56 17.93Q66.02 16.19 66.02 11.78L66.02 11.78L66.02-21.97Q59.44-21.74 57.08-21.24Q54.72-20.73 53.87-18.99Q53.02-17.25 52.32-12.22L52.32-12.22L48.68-11.91Q49.61-19.26 49.85-25.30L49.85-25.30L50.54-25.92L56.97-25.07L80.96-25.07L87.54-25.92L88.24-25.30Q88.47-18.95 89.40-12.22L89.40-12.22L85.76-11.91Q84.91-17.02 84.06-18.80Q83.21-20.58 81.04-21.12Q78.87-21.66 72.68-21.97L72.68-21.97Q72.21-17.33 71.83-5.56Q71.44 6.20 71.44 15.65L71.44 15.65Q71.44 18.51 72.45 19.71Q73.45 20.91 75.85 20.91L75.85 20.91Q78.17 20.91 80.11 20.68L80.11 20.68L80.34 20.99L79.64 24.55L77.09 24.47L68.27 24.31Q64.01 24.31 57.66 24.62L57.66 24.62Z"/>
    <linearGradient id="CUSTOM_SVGID_131" gradientUnits="userSpaceOnUse" gradientTransform="matrix(1 0 0 1 -229 -43.730999999999995)"  x1="0" y1="0" x2="458" y2="87.46199999999999">
      <stop  offset="0" style="stop-color:#FFDA4E;stop-opacity:undefined"/><stop  offset="0.32" style="stop-color:#FBDE8A;stop-opacity:undefined"/><stop  offset="0.68" style="stop-color:#D8A517;stop-opacity:undefined"/><stop  offset="1" style="stop-color:#F6BE21;stop-opacity:undefined"/>
    </linearGradient>
  <path fill="url(#CUSTOM_SVGID_132)" opacity="1" d=""/>
    <linearGradient id="CUSTOM_SVGID_132" gradientUnits="userSpaceOnUse" gradientTransform="matrix(1 0 0 1 -229 -43.730999999999995)"  x1="0" y1="0" x2="458" y2="87.46199999999999">
      <stop  offset="0" style="stop-color:#FFDA4E;stop-opacity:undefined"/><stop  offset="0.32" style="stop-color:#FBDE8A;stop-opacity:undefined"/><stop  offset="0.68" style="stop-color:#D8A517;stop-opacity:undefined"/><stop  offset="1" style="stop-color:#F6BE21;stop-opacity:undefined"/>
    </linearGradient>
  <path fill="url(#CUSTOM_SVGID_133)" opacity="1" d=""/>
    <linearGradient id="CUSTOM_SVGID_133" gradientUnits="userSpaceOnUse" gradientTransform="matrix(1 0 0 1 -229 -43.730999999999995)"  x1="0" y1="0" x2="458" y2="87.46199999999999">
      <stop  offset="0" style="stop-color:#FFDA4E;stop-opacity:undefined"/><stop  offset="0.32" style="stop-color:#FBDE8A;stop-opacity:undefined"/><stop  offset="0.68" style="stop-color:#D8A517;stop-opacity:undefined"/><stop  offset="1" style="stop-color:#F6BE21;stop-opacity:undefined"/>
    </linearGradient>
  <path fill="url(#CUSTOM_SVGID_134)" opacity="1" d=""/>
    <linearGradient id="CUSTOM_SVGID_134" gradientUnits="userSpaceOnUse" gradientTransform="matrix(1 0 0 1 -229 -43.730999999999995)"  x1="0" y1="0" x2="458" y2="87.46199999999999">
      <stop  offset="0" style="stop-color:#FFDA4E;stop-opacity:undefined"/><stop  offset="0.32" style="stop-color:#FBDE8A;stop-opacity:undefined"/><stop  offset="0.68" style="stop-color:#D8A517;stop-opacity:undefined"/><stop  offset="1" style="stop-color:#F6BE21;stop-opacity:undefined"/>
    </linearGradient>
  <path fill="url(#CUSTOM_SVGID_135)" opacity="1" d=""/>
    <linearGradient id="CUSTOM_SVGID_135" gradientUnits="userSpaceOnUse" gradientTransform="matrix(1 0 0 1 -229 -43.730999999999995)"  x1="0" y1="0" x2="458" y2="87.46199999999999">
      <stop  offset="0" style="stop-color:#FFDA4E;stop-opacity:undefined"/><stop  offset="0.32" style="stop-color:#FBDE8A;stop-opacity:undefined"/><stop  offset="0.68" style="stop-color:#D8A517;stop-opacity:undefined"/><stop  offset="1" style="stop-color:#F6BE21;stop-opacity:undefined"/>
    </linearGradient>
  <path fill="url(#CUSTOM_SVGID_136)" opacity="1" d=""/>
    <linearGradient id="CUSTOM_SVGID_136" gradientUnits="userSpaceOnUse" gradientTransform="matrix(1 0 0 1 -229 -43.730999999999995)"  x1="0" y1="0" x2="458" y2="87.46199999999999">
      <stop  offset="0" style="stop-color:#FFDA4E;stop-opacity:undefined"/><stop  offset="0.32" style="stop-color:#FBDE8A;stop-opacity:undefined"/><stop  offset="0.68" style="stop-color:#D8A517;stop-opacity:undefined"/><stop  offset="1" style="stop-color:#F6BE21;stop-opacity:undefined"/>
    </linearGradient>
  <path fill="url(#CUSTOM_SVGID_137)" opacity="1" d="M181.74 24.55L180.65 22.07L209.52-21.58L196.13-21.12Q192.49-20.96 190.40-19.92Q188.31-18.87 187.23-16.63Q186.15-14.39 185.68-10.44L185.68-10.44L182.04-10.13Q182.12-10.75 182.43-12.88Q182.74-15.00 183.05-18.53Q183.36-22.05 183.44-25.22L183.44-25.22L184.21-25.92L197.76-25.07L217.73-24.52L218.58-22.28Q203.79-2.62 188.70 21.22L188.70 21.22L204.41 20.68Q208.44 20.60 210.92 17.50Q213.39 14.41 214.63 7.83L214.63 7.83L218.27 7.44Q218.11 8.14 217.76 10.34Q217.42 12.55 216.95 16.26Q216.49 19.98 216.33 23.31L216.33 23.31L215.17 24.55L187.15 24.08L181.74 24.55Z"/>
    <linearGradient id="CUSTOM_SVGID_137" gradientUnits="userSpaceOnUse" gradientTransform="matrix(1 0 0 1 -229 -43.730999999999995)"  x1="0" y1="0" x2="458" y2="87.46199999999999">
      <stop  offset="0" style="stop-color:#FFDA4E;stop-opacity:undefined"/><stop  offset="0.32" style="stop-color:#FBDE8A;stop-opacity:undefined"/><stop  offset="0.68" style="stop-color:#D8A517;stop-opacity:undefined"/><stop  offset="1" style="stop-color:#F6BE21;stop-opacity:undefined"/>
    </linearGradient>
  </g></svg>