<?xml version="1.0" encoding="UTF-8" standalone="no" ?>
<!DOCTYPE svg PUBLIC "-//W3C//DTD SVG 1.1//EN" "http://www.w3.org/Graphics/SVG/1.1/DTD/svg11.dtd">
<svg xmlns="http://www.w3.org/2000/svg" xmlns:xlink="http://www.w3.org/1999/xlink" version="1.1" width="500" height="500" viewBox="0 0 500 500" xml:space="preserve">
<desc>Created with Fabric.js 3.6.3</desc>
<defs>
</defs>
<g transform="matrix(1 0 0 1 250 250)"  >
<rect style="stroke: none; stroke-width: 1; stroke-dasharray: none; stroke-linecap: butt; stroke-dashoffset: 0; stroke-linejoin: miter; stroke-miterlimit: 4; fill: rgb(0,0,0); fill-rule: nonzero; opacity: 1;"  x="-250" y="-250" rx="0" ry="0" width="500" height="500" />
</g>
<g transform="matrix(3.1129394641745534 0 0 3.1129394641745534 249.99999999999997 247.942863268605)"  >
<g style=""   >
		<g transform="matrix(1.3333333333333335 0 0 1.3333333333333335 0.0033333333333303017 0.5440000000000111)"  >
<linearGradient id="SVGID_51121_51126" gradientUnits="userSpaceOnUse" gradientTransform="matrix(1 0 0 1 17.035899999999998 17.437199999999997)"  x1="0" y1="0" x2="133.33333333333334" y2="133.33333333333334">
<stop offset="0%" style="stop-color:#E9AB1A;"/>
<stop offset="32%" style="stop-color:#F5C31B;"/>
<stop offset="68%" style="stop-color:#FFF990;"/>
<stop offset="100%" style="stop-color:#FFF17E;"/>
</linearGradient>
<path style="stroke: none; stroke-width: 1; stroke-dasharray: none; stroke-linecap: butt; stroke-dashoffset: 0; stroke-linejoin: miter; stroke-miterlimit: 4; fill: url(#SVGID_51121_51126); fill-rule: evenodd; opacity: 1;"  transform=" translate(-50.0025, -50.40800000000001)" d="m 81.723 41.402 c 0.8125 2.8633 1.2461 5.8828 1.2461 9.0078 c 0 18.195 -14.773 32.969 -32.969 32.969 c -2.457 0 -4.8555 -0.26953 -7.1562 -0.78125 v -3.2109 c 2.2891 0.56641 4.6875 0.86719 7.1562 0.86719 c 4.3242 0 8.4375 -0.92188 12.148 -2.582 c 1.1133 -7.9297 -2.4336 -18.469 5.4766 -23.746 c 1.1055 -0.73828 2.3555 -1.2148 3.6406 -1.5391 c 1.7734 -0.44531 3.625 -0.65234 5.4531 -0.63281 c 1.0078 0.011719 2.043 0.082032 3.0859 0.22266 c 0.027343 -0.51562 0.039062 -1.0391 0.039062 -1.5625 c 0 -3.1367 -0.48438 -6.1641 -1.3867 -9.0078 h 3.2617 z m -63.441 18.012 c -0.8125 -2.8633 -1.2461 -5.8828 -1.2461 -9.0078 c 0 -18.195 14.773 -32.969 32.969 -32.969 c 2.457 0 4.8555 0.26953 7.1562 0.78125 v 3.2109 c -1.0312 -0.25391 -2.0859 -0.45703 -3.1523 -0.59766 c -3.2383 2.6484 -5.7031 5.9727 -6.418 10.148 c -0.97656 5.6992 3.0625 10.461 4.25 15.73 c 0.73828 3.2695 -0.22656 6.8477 -3.2656 8.6055 c -0.96094 0.55859 -2.1172 0.94141 -3.207 1.1641 c -10.336 2.0859 -14.316 -8.3555 -21.555 -13.051 c -0.79297 -0.51172 -1.6133 -0.97656 -2.4531 -1.3945 c -0.77734 2.6562 -1.1914 5.4648 -1.1914 8.3711 c 0 3.1367 0.48438 6.1641 1.3867 9.0078 z" stroke-linecap="round" />
</g>
		<g transform="matrix(1.3333333333333335 0 0 1.3333333333333335 -24.149093333333333 -30.26585417174276)"  >
<linearGradient id="SVGID_51122_51127" gradientUnits="userSpaceOnUse" gradientTransform="matrix(1 0 0 1 5.558 2.6250187423858584)"  x1="0" y1="0" x2="133.33333333333334" y2="133.33333333333334">
<stop offset="0%" style="stop-color:#E9AB1A;"/>
<stop offset="32%" style="stop-color:#F5C31B;"/>
<stop offset="68%" style="stop-color:#FFF990;"/>
<stop offset="100%" style="stop-color:#FFF17E;"/>
</linearGradient>
<path style="stroke: none; stroke-width: 1; stroke-dasharray: none; stroke-linecap: butt; stroke-dashoffset: 0; stroke-linejoin: miter; stroke-miterlimit: 4; fill: url(#SVGID_51122_51127); fill-rule: evenodd; opacity: 1;"  transform=" translate(-31.888180000000002, -27.30060937119293)" d="m 49.566 5.9727 c -24.332 0.23438 -44.008 20.055 -44.008 44.441 c 0 0.86328 0.69922 1.5625 1.5625 1.5625 c 0.86328 0 1.5625 -0.69922 1.5625 -1.5625 c 0 -22.66 18.281 -41.082 40.883 -41.316 v 2.293 c 0 0.375 0.19922 0.72266 0.52734 0.91016 c 0.32422 0.1875 0.72656 0.18359 1.0508 -0.007812 c 1.8125 -1.0664 4.7656 -2.8047 6.5586 -3.8594 c 0.32031 -0.1875 0.51562 -0.53125 0.51562 -0.90234 s -0.19531 -0.71484 -0.51562 -0.90234 c -1.793 -1.0547 -4.7461 -2.793 -6.5586 -3.8594 c -0.32422 -0.19141 -0.72656 -0.19141 -1.0508 -0.007812 c -0.32422 0.1875 -0.52734 0.53516 -0.52734 0.91016 z" stroke-linecap="round" />
</g>
		<g transform="matrix(1.3333333333333335 0 0 1.3333333333333335 29.31049333333333 30.81625083050175)"  >
<linearGradient id="SVGID_51123_51128" gradientUnits="userSpaceOnUse" gradientTransform="matrix(1 0 0 1 49.519739999999985 48.84750000000001)"  x1="0" y1="0" x2="133.33333333333334" y2="133.33333333333334">
<stop offset="0%" style="stop-color:#E9AB1A;"/>
<stop offset="32%" style="stop-color:#F5C31B;"/>
<stop offset="68%" style="stop-color:#FFF990;"/>
<stop offset="100%" style="stop-color:#FFF17E;"/>
</linearGradient>
<path style="stroke: none; stroke-width: 1; stroke-dasharray: none; stroke-linecap: butt; stroke-dashoffset: 0; stroke-linejoin: miter; stroke-miterlimit: 4; fill: url(#SVGID_51123_51128); fill-rule: evenodd; opacity: 1;"  transform=" translate(-71.98286999999999, -73.11218812287632)" d="m 58.176 90.918 c 18.895 -3.7969 33.145 -20.504 33.145 -40.508 c 0 -0.86328 0.69922 -1.5625 1.5625 -1.5625 c 0.86328 0 1.5625 0.69922 1.5625 1.5625 c 0 21.734 -15.637 39.844 -36.27 43.688 v 2.2305 c 0 0.375 -0.19922 0.72266 -0.52734 0.91016 c -0.32422 0.1875 -0.72656 0.18359 -1.0508 -0.007812 c -1.8125 -1.0664 -4.7656 -2.8047 -6.5625 -3.8594 c -0.32031 -0.1875 -0.51562 -0.53125 -0.51562 -0.90234 s 0.19531 -0.71484 0.51562 -0.90234 c 1.793 -1.0547 4.75 -2.793 6.5625 -3.8594 c 0.32422 -0.19141 0.72266 -0.19141 1.0508 -0.007812 c 0.32422 0.1875 0.52734 0.53516 0.52734 0.91016 z" stroke-linecap="round" />
</g>
		<g transform="matrix(1.3333333333333335 0 0 1.3333333333333335 38.79447333333335 -26.198065363360218)"  >
<linearGradient id="SVGID_51124_51129" gradientUnits="userSpaceOnUse" gradientTransform="matrix(1 0 0 1 60.27750999999999 14.043400000000002)"  x1="0" y1="0" x2="133.33333333333334" y2="133.33333333333334">
<stop offset="0%" style="stop-color:#E9AB1A;"/>
<stop offset="32%" style="stop-color:#F5C31B;"/>
<stop offset="68%" style="stop-color:#FFF990;"/>
<stop offset="100%" style="stop-color:#FFF17E;"/>
</linearGradient>
<path style="stroke: none; stroke-width: 1; stroke-dasharray: none; stroke-linecap: butt; stroke-dashoffset: 0; stroke-linejoin: miter; stroke-miterlimit: 4; fill: url(#SVGID_51124_51129); fill-rule: evenodd; opacity: 1;"  transform=" translate(-79.095855, -30.35145097747984)" d="m 60.281 17.184 c 0 -1.7344 1.4062 -3.1406 3.1406 -3.1406 h 31.352 c 1.7344 0 3.1406 1.4062 3.1406 3.1406 v 17.957 c 0 1.7344 -1.4062 3.1406 -3.1406 3.1406 h -22.332 c -0.76172 0 -1.5 0.27734 -2.0742 0.78125 c -1.8164 1.5938 -5.9766 5.2539 -8.3516 7.3359 c -0.30859 0.27344 -0.74609 0.33594 -1.1211 0.16797 c -0.375 -0.16797 -0.61719 -0.54297 -0.61719 -0.95312 v -28.426 z m 9.2969 6.9141 c 1.3477 0 2.4414 1.0938 2.4414 2.4414 c 0 1.3477 -1.0938 2.4414 -2.4414 2.4414 s -2.4414 -1.0938 -2.4414 -2.4414 c 0 -1.3477 1.0938 -2.4414 2.4414 -2.4414 z m 19.039 0 c 1.3477 0 2.4414 1.0938 2.4414 2.4414 c 0 1.3477 -1.0938 2.4414 -2.4414 2.4414 c -1.3477 0 -2.4414 -1.0938 -2.4414 -2.4414 c 0 -1.3477 1.0938 -2.4414 2.4414 -2.4414 z m -9.5195 0 c 1.3477 0 2.4414 1.0938 2.4414 2.4414 c 0 1.3477 -1.0938 2.4414 -2.4414 2.4414 s -2.4414 -1.0938 -2.4414 -2.4414 c 0 -1.3477 1.0938 -2.4414 2.4414 -2.4414 z" stroke-linecap="round" />
</g>
		<g transform="matrix(1.3333333333333335 0 0 1.3333333333333335 -34.07382355735179 32.88336666666666)"  >
<linearGradient id="SVGID_51125_51130" gradientUnits="userSpaceOnUse" gradientTransform="matrix(1 0 0 1 2.0826100000000025 62.54338999999999)"  x1="0" y1="0" x2="133.33333333333334" y2="133.33333333333334">
<stop offset="0%" style="stop-color:#E9AB1A;"/>
<stop offset="32%" style="stop-color:#F5C31B;"/>
<stop offset="68%" style="stop-color:#FFF990;"/>
<stop offset="100%" style="stop-color:#FFF17E;"/>
</linearGradient>
<path style="stroke: none; stroke-width: 1; stroke-dasharray: none; stroke-linecap: butt; stroke-dashoffset: 0; stroke-linejoin: miter; stroke-miterlimit: 4; fill: url(#SVGID_51125_51130); fill-rule: evenodd; opacity: 1;"  transform=" translate(-24.444632331986167, -74.66252499999999)" d="m 46.52 64.309 c 0.28906 -0.30469 0.36719 -0.75 0.19922 -1.1328 c -0.16406 -0.38281 -0.54297 -0.63281 -0.96094 -0.63281 h -40.535 c -0.83203 0 -1.6328 0.33203 -2.2227 0.91797 c -0.58984 0.58984 -0.91797 1.3867 -0.91797 2.2227 v 17.957 c 0 1.7344 1.4062 3.1406 3.1406 3.1406 h 31.352 c 0.83203 0 1.6328 -0.33203 2.2227 -0.91797 c 0.58984 -0.58984 0.92188 -1.3867 0.92188 -2.2227 v -10.898 c 0 -0.80469 0.30859 -1.5781 0.85938 -2.1602 c 1.3906 -1.4648 4.1523 -4.3828 5.9414 -6.2734 z m -25.617 8.2891 c -1.3477 0 -2.4414 1.0938 -2.4414 2.4414 c 0 1.3477 1.0938 2.4414 2.4414 2.4414 s 2.4414 -1.0938 2.4414 -2.4414 c 0 -1.3477 -1.0938 -2.4414 -2.4414 -2.4414 z m 9.5195 0 c -1.3477 0 -2.4414 1.0938 -2.4414 2.4414 c 0 1.3477 1.0938 2.4414 2.4414 2.4414 s 2.4414 -1.0938 2.4414 -2.4414 c 0 -1.3477 -1.0938 -2.4414 -2.4414 -2.4414 z m -19.039 0 c -1.3477 0 -2.4414 1.0938 -2.4414 2.4414 c 0 1.3477 1.0938 2.4414 2.4414 2.4414 c 1.3477 0 2.4414 -1.0938 2.4414 -2.4414 c 0 -1.3477 -1.0938 -2.4414 -2.4414 -2.4414 z" stroke-linecap="round" />
</g>
</g>
</g>
</svg>